<svg xmlns="http://www.w3.org/2000/svg" width="124" height="41" viewBox="0 0 124 41">
  <g>
    <path d="M2,18.018V1H7.953c4.32,0,8.088,2.952,8.088,8.545,0,5.568-3.816,8.473-8.137,8.473ZM7.833,15.93c3.144,0,5.784-2.113,5.784-6.385,0-4.3-2.592-6.456-5.736-6.456H4.353V15.93Z" fill="#111"/>
    <path d="M21.032,18.018V1h2.4V18.018Z" fill="#2929cc"/>
    <path d="M42.321,18.018l-.216-2.4a6.053,6.053,0,0,1-5.449,2.761c-4.271,0-8.256-3.12-8.256-8.881S32.624.641,36.824.641a7.571,7.571,0,0,1,7.537,5.135l-2.135.912a5.37,5.37,0,0,0-5.4-3.887C33.776,2.8,30.8,4.984,30.8,9.5s2.881,6.744,5.929,6.744c3.792,0,5.16-2.687,5.256-4.439h-5.9V9.689h8.137v8.329Z" fill="#111"/>
    <path d="M49.544,18.018V1h2.4V18.018Z" fill="#2929cc"/>
    <path d="M64.208,3.185V18.018H61.855V3.185H56.167V1H69.9V3.185Z" fill="#111"/>
    <path d="M82.353,13.266H74.815l-1.8,4.752H70.5L77.264,1h2.712l6.768,17.018H84.2Zm-6.7-2.185h5.857L78.56,3.448Z" fill="#111"/>
    <path d="M90.943,18.018V1H93.3V15.81h8.041v2.208Z" fill="#111"/>
    <g>
      <path d="M10.569,27.433a3.453,3.453,0,0,0-3.6-2.9,3.009,3.009,0,0,0-3.288,2.833,2.464,2.464,0,0,0,2.183,2.472l2.545.551c2.832.624,4.416,2.4,4.416,4.778,0,2.639-2.256,5.04-5.881,5.04C2.84,40.2.9,37.562.584,35.138l2.256-.719a3.867,3.867,0,0,0,4.081,3.647c2.351,0,3.5-1.224,3.5-2.712,0-1.224-.84-2.28-2.544-2.64l-2.425-.528C3.032,31.658,1.3,30.074,1.3,27.53a5.424,5.424,0,0,1,5.617-5.065c3.84,0,5.376,2.376,5.76,4.224Z" fill="#111"/>
      <path d="M16.664,31.322a8.435,8.435,0,0,1,8.449-8.857c3.888,0,6.624,2.113,7.489,5.4l-2.185.767a5.038,5.038,0,0,0-5.3-4.007c-3.1,0-6.049,2.255-6.049,6.7s2.953,6.721,6.049,6.721a5.408,5.408,0,0,0,5.424-4.081l2.089.768A7.431,7.431,0,0,1,25.113,40.2C20.721,40.2,16.664,37.01,16.664,31.322Z" fill="#111"/>
      <path d="M48.272,39.842v-7.56H39.584v7.56H37.231V22.825h2.353V30.1h8.688V22.825h2.353V39.842Z" fill="#111"/>
      <path d="M64.112,22.465a8.481,8.481,0,0,1,8.545,8.857,8.551,8.551,0,1,1-17.09,0A8.481,8.481,0,0,1,64.112,22.465Zm0,15.578c3.168,0,6.145-2.281,6.145-6.721s-2.977-6.7-6.145-6.7-6.144,2.255-6.144,6.7S60.943,38.043,64.112,38.043Z" fill="#2929cc"/>
      <path d="M77.6,39.842V22.825h2.351V37.634h8.041v2.208Z" fill="#111"/>
      <path d="M102.225,35.09H94.688l-1.8,4.752H90.367l6.769-17.017h2.712l6.768,17.017h-2.544Zm-6.7-2.184h5.857l-2.952-7.633Z" fill="#111"/>
      <path d="M115.735,32.882h-2.544v6.96h-2.376V22.825h6.409a4.929,4.929,0,0,1,5.208,5.064,4.765,4.765,0,0,1-4.128,4.825l4.056,7.128h-2.736Zm1.057-2.112c1.92,0,3.216-1.128,3.216-2.881a2.911,2.911,0,0,0-3.216-2.952h-3.6V30.77Z" fill="#111"/>
    </g>
  </g>
</svg>
